<?xml version="1.0" encoding="UTF-8"?> <svg xmlns="http://www.w3.org/2000/svg" width="244" height="99" viewBox="0 0 244 99" fill="none"> <path d="M194.917 50.5082C192.382 51.7406 189.975 54.3301 186.895 52.1676L188.94 47.0709C185.36 47.5374 182.267 47.8242 179.182 48.4307C178.394 48.5957 177.606 49.7157 176.951 50.506C172.252 56.1483 167.57 62.0796 162.83 67.7793C162.249 68.4856 161.218 68.7404 160.419 69.1902L159.853 68.4024L168.293 54.9008C166.649 55.2839 165.968 55.4653 165.355 55.5936C160.708 56.5963 156.041 57.1128 151.417 57.1363C145.672 56.8865 139.71 58.1634 133.828 58.4976C132.611 58.5964 131.505 57.5024 130.316 57.0006C129.757 56.653 129.12 56.4569 128.45 56.4262C126.343 56.7697 124.247 57.3059 122.172 57.7499C121.498 57.9006 120.714 58.2889 120.179 58.0791C115.992 56.3824 112.307 60.0483 108.399 60.9734C107.519 61.0887 106.642 61.0923 105.786 60.9842C105.864 59.9433 106.106 58.9028 106.5 57.9107C108.308 54.4329 109.38 53.6432 111.673 53.9333C111.53 54.548 111.395 55.132 111.044 55.6829C110.694 56.2337 110.425 56.797 110.128 57.3561L110.534 58.1192C113.582 56.2336 116.611 54.3132 119.652 52.4583C122.694 50.6035 124.247 46.0678 128.669 46.8773L121.701 55.3532C125.949 55.0612 130.136 52.9181 133.363 49.3843C133.929 48.7395 134.411 47.8588 135.074 47.5154C135.779 47.2308 136.521 47.2539 137.142 47.5797C137.383 47.6169 137.25 49.0289 136.926 49.5839C135.73 51.6278 134.413 53.5896 132.575 56.3622L140.414 56.8075C141.331 52.1418 148.177 44.666 151.941 44.005C153.705 43.7041 153.802 44.9606 153.271 46.407C152.362 49.0046 151.326 51.5509 150.142 54.6155C151.485 52.9649 152.899 51.3869 154.378 49.8887C155.279 49.3885 156.238 49.0819 157.198 48.9867C157.001 50.1329 156.736 51.2726 156.406 52.3982C155.969 53.2946 155.446 54.1435 154.846 54.9274C159.377 55.2833 164.07 54.1385 168.358 51.6317C169.25 50.8949 169.941 49.886 170.332 48.7527C171.815 45.4794 173.104 42.0808 174.64 38.8158C175.006 38.0764 176.053 37.6331 176.773 37.0438C176.985 37.8086 177.537 38.6579 177.373 39.3648C177.226 39.8684 177.168 40.3873 177.202 40.8908C177.235 41.3942 177.361 41.8721 177.57 42.2962C177.78 42.7202 178.069 43.0819 178.422 43.3597C178.774 43.6376 179.181 43.826 179.621 43.914C183.033 45.3786 186.943 45.4201 190.701 44.0317C191.741 43.5685 192.842 43.45 193.863 43.6917L190.06 50.6183L194.923 50.6045L194.917 50.5082ZM143.083 54.1631C146.023 55.731 150.528 52.9558 150.615 50.0721C150.736 49.5496 148.997 48.5491 148.759 48.7353C146.837 50.317 145.064 52.2084 143.083 54.1631Z" fill="#F8F4EB"></path> <path d="M79.6524 48.6643C83.1122 50.6936 87.261 49.02 91.8537 47.7822C91.5572 46.7669 91.3595 45.7082 91.2637 44.6223C91.243 43.4325 91.4569 42.2193 91.891 41.0636C92.0108 40.5598 93.5558 39.9344 93.7249 40.1443C94.3326 40.8849 94.7731 41.7782 95.0179 42.766C95.2204 44.1839 95.3345 45.627 95.3595 47.0857C96.8753 45.363 98.4637 43.7181 100.118 42.1578C100.939 41.6437 101.814 41.2684 102.709 41.0463C102.635 42.0483 102.915 43.2883 102.427 44.074C100.814 46.2549 98.925 48.2099 97.1474 50.2738C96.3372 51.1003 95.6123 52.0218 94.9893 53.0169C94.6149 53.5317 94.3599 54.129 94.25 54.7485C94.1401 55.368 94.1791 55.9878 94.3631 56.5453C94.5472 57.1027 94.8698 57.5781 95.2983 57.9234C95.7268 58.2687 96.246 58.4716 96.8036 58.5118C95.0154 61.311 94.1962 61.1868 90.5004 56.6961C89.4785 57.6348 88.4039 58.4981 87.2852 59.2789C86.5451 59.5667 85.7787 59.7007 85.0285 59.6735C85.1359 58.9344 85.3106 58.1996 85.5501 57.4805C85.8796 56.9504 86.2386 56.4407 86.6247 55.9548C88.5187 52.711 88.0202 51.4687 84.784 51.377C83.394 51.3504 82.0992 51.154 80.6582 50.9969C79.5671 50.8928 78.4348 51.0927 77.3634 51.5788C76.2919 52.0648 75.3149 52.8217 74.5204 53.7812C73.1286 55.2589 71.6488 56.4161 69.8077 58.2862C69.3639 56.0082 69.0539 54.5488 71.2296 53.8041C71.6934 53.6842 72.123 53.3896 72.4399 52.9744C72.8287 52.1358 73.1535 51.2707 73.4107 50.389C72.5686 50.4762 71.4552 50.0924 70.9232 50.7179C66.3475 54.7729 61.1358 57.7868 55.6544 59.5478C53.844 60.1573 51.9952 60.4871 50.165 60.5268C47.1085 60.8308 46.071 58.8619 48.1569 56.0771C51.1423 52.3044 54.2884 48.682 57.5823 45.2249C58.1337 44.6331 59.2383 44.7085 60.0892 44.4691L60.5542 45.2765C56.8651 49.5069 53.2482 53.7789 49.7036 58.0926L50.0206 59.0618C52.9155 58.3945 55.7891 57.5067 58.6195 56.4051C61.1093 55.1313 63.4879 53.5543 65.7051 51.7073C66.8479 51.0917 67.7879 50.0509 68.3356 48.7948C68.8833 47.5388 68.9978 46.161 68.6562 44.9394C68.4748 44.5881 68.37 44.1885 68.3488 43.7675C68.3276 43.3465 68.3905 42.9139 68.5333 42.499C68.6761 42.084 68.8955 41.6964 69.1765 41.3623C69.4576 41.0282 69.7938 40.7553 70.1626 40.5622C70.4797 40.6103 70.6118 40.6303 70.5959 40.8122C71.7637 45.687 71.7831 45.7207 75.3788 41.5376C77.5194 39.0988 79.5947 36.5888 81.7352 34.15C82.3596 33.3054 83.135 32.604 84.0026 32.099C84.7951 31.7517 85.6417 31.7372 86.3667 32.0584C86.7103 32.1105 86.6891 33.5811 86.4019 34.213C84.1926 39.1284 81.9533 43.8243 79.6524 48.6643ZM80.8295 39.1096L75.2095 47.315C76.6628 48.4565 79.6455 45.0095 80.8295 39.1096ZM88.3125 53.693L89.7218 54.2138L90.7825 50.9051C90.3068 50.8329 89.5035 50.5269 89.4084 50.6967C88.9563 51.6703 88.555 52.6655 88.2068 53.677L88.3125 53.693Z" fill="#F8F4EB"></path> <path d="M23.293 56.8052C22.6324 56.3425 22.0211 55.8077 21.467 55.2079C20.2907 53.7088 19.2008 54.325 17.643 55.321C13.6072 57.8947 9.48998 60.2459 5.29656 62.4654C3.95922 62.8827 2.5958 63.0721 1.25761 63.0265C2.39497 58.2731 6.58537 53.1399 9.03525 53.9305C7.45991 56.1251 5.90538 58.2328 4.3699 60.3733L5.01782 61.0418C10.4696 58.5717 15.528 54.9479 19.8702 50.4018L13.075 48.4142L13.3385 47.3128C14.3259 47.1311 15.3152 47.0197 16.2997 46.9793C18.2004 47.0262 20.0422 47.5447 21.9863 47.2978C23.1698 47.1508 24.3338 46.6507 25.3479 45.8536C28.1205 43.7197 30.7407 41.3225 33.5323 39.2216C34.2567 38.6703 35.4141 38.7851 36.3671 38.6287C36.5031 39.6014 36.4795 40.6138 36.2973 41.6214C35.6823 43.153 34.9818 44.6522 34.2001 46.1097C33.8193 46.8044 33.6327 47.5842 33.6661 48.3415C34.3189 50.9028 33.137 52.0156 31.0853 53.3875C29.3094 54.8908 27.7496 56.6875 26.4756 58.6975C25.467 59.9867 24.7165 61.435 22.6444 60.6414C22.9357 59.4241 23.0779 58.1542 23.2791 56.8632C25.75 56.2154 26.3412 54.0823 27.3067 51.285L22.2247 51.9288C22.5 53.1416 22.7753 54.3545 23.0246 55.5634L23.293 56.8052ZM27.4495 46.8618C30.5941 47.7873 31.3014 45.7319 31.5166 43.0315L27.4495 46.8618Z" fill="#F8F4EB"></path> <path d="M216.032 51.121L215.293 54.2089C220.641 54.4737 225.738 55.7871 230.757 51.2029C232.633 49.8284 234.624 48.6804 236.689 47.7828L237.232 48.6798L234.791 52.3255L237.504 54.6673L207.931 56.5979L212.43 49.0978L209.673 49.315L209.621 48.8543C210.399 48.4286 211.235 47.6493 212.007 47.585C216.69 47.2361 219.006 43.2093 221.7 39.7527C223.18 37.8634 224.672 36.0363 226.216 34.2172C226.549 33.8448 227.172 33.7277 227.726 33.4491C227.63 34.9984 227.132 36.5418 226.29 37.8999C225.448 39.258 224.296 40.3752 222.969 41.1216C222.185 41.456 221.576 42.4204 220.899 43.1029C219.006 45.0204 217.106 46.967 215.233 48.9176C213.36 50.8681 212.031 52.237 210.401 54.0735L211.206 55.01C212.64 53.5364 214.049 52.0589 215.477 50.6145L216.032 51.121Z" fill="#F8F4EB"></path> <path d="M36.9771 55.3628L39.1017 57.6177L36.5653 60.2088C36.0411 59.5048 35.1809 58.8689 35.1022 58.0836C35.0235 57.2983 36.05 56.6801 36.9771 55.3628Z" fill="#F8F4EB"></path> <path d="M195.526 53.2598C193.394 50.8533 197.221 50.1327 197.024 48.3509L202.196 48.347L202.317 49.0901L198.7 50.1749C197.2 50.6732 195.43 50.8287 195.486 53.3142L195.526 53.2598Z" fill="#F8F4EB"></path> <path d="M105.115 56.9511C104.087 57.9705 103.354 59.0384 103.04 58.9569C102.224 58.5344 101.488 57.9719 100.859 57.2904C101.425 56.7299 101.973 55.7504 102.545 55.6663C103.118 55.5822 103.927 56.3097 105.115 56.9511Z" fill="#F8F4EB"></path> <path d="M239.419 66.364C239.682 66.3965 239.61 66.2991 239.656 66.287C239.215 66.2667 239.426 66.3884 239.419 66.364Z" fill="#F8F4EB"></path> <path d="M235.081 66.1573L235.167 66.1289L234.516 66.1573H235.081Z" fill="#F8F4EB"></path> <path d="M231.073 65.7759C231.415 65.9624 232.532 65.8894 233.229 66.0111L233.341 66.0557L233.696 65.9665C232.821 65.9138 231.671 65.8732 231.073 65.7759Z" fill="#F8F4EB"></path> <path d="M229.002 65.2485C229.126 65.3175 228.528 65.2485 229.501 65.3134L229.409 65.2891L229.002 65.2485Z" fill="#F8F4EB"></path> <path d="M229.409 65.2894C229.836 65.3259 229.146 65.2164 229.409 65.2894V65.2894Z" fill="#F8F4EB"></path> <path d="M227.441 65.1717H228.013C227.901 65.1312 227.408 65.0866 227.599 65.0744C227.014 65.0501 227.125 65.1028 227.441 65.1717Z" fill="#F8F4EB"></path> <path d="M226.889 65.2446H227.165C227.165 65.2244 227.06 65.2122 226.889 65.2446Z" fill="#F8F4EB"></path> <path d="M227.825 65.2363H227.167C227.246 65.2647 227.24 65.3174 227.45 65.2363C227.411 65.285 227.542 65.2485 227.825 65.2363Z" fill="#F8F4EB"></path> <path d="M228.153 65.2852C228.462 65.3379 228.863 65.3866 228.291 65.3987C229.362 65.4677 229.231 65.3419 228.153 65.2852Z" fill="#F8F4EB"></path> <path d="M230.828 65.9137L231.235 65.9989H231.61C231.426 65.9867 230.814 65.861 230.828 65.9137Z" fill="#F8F4EB"></path> <path d="M223.971 64.8511C223.931 64.8795 224.142 64.9484 224.174 64.993H224.595C224.391 64.9484 223.99 64.8997 223.971 64.8511Z" fill="#F8F4EB"></path> <path d="M224.175 64.9932H223.551C224.103 65.0499 224.208 65.0297 224.175 64.9932Z" fill="#F8F4EB"></path> <path d="M226.758 65.4025L227.797 65.3579L226.561 65.3904L226.758 65.4025Z" fill="#F8F4EB"></path> <path d="M221.61 64.6849L221.972 64.6362L221.327 64.7052L221.61 64.6849Z" fill="#F8F4EB"></path> <path d="M220.034 64.5873C220.304 64.5468 219.699 64.4616 219.981 64.4413C219.602 64.4284 219.221 64.4392 218.844 64.4738C219.247 64.4771 219.648 64.5153 220.034 64.5873Z" fill="#F8F4EB"></path> <path d="M218.285 64.5066C218.456 64.5066 218.64 64.5066 218.843 64.4741C218.656 64.4767 218.469 64.4876 218.285 64.5066Z" fill="#F8F4EB"></path> <path d="M222.501 64.9163C222.364 64.8494 222.201 64.806 222.028 64.7905L222.258 64.9L222.501 64.9163Z" fill="#F8F4EB"></path> <path d="M222.261 64.9038L221.735 64.8633L222.261 64.9038Z" fill="#F8F4EB"></path> <path d="M222.566 64.9199H222.508C222.508 64.9199 222.566 64.9321 222.566 64.9199Z" fill="#F8F4EB"></path> <path d="M225.155 65.208C224.78 65.2323 224.011 65.2364 224.734 65.3621C225.003 65.3175 224.596 65.2486 225.155 65.208Z" fill="#F8F4EB"></path> <path d="M222.84 65.0542L223.497 65.1191C223.497 65.0947 223.379 65.0542 223.563 65.042L222.84 65.0542Z" fill="#F8F4EB"></path> <path d="M222.519 65.0622L222.841 65.0541L222.604 65.0298L222.519 65.0622Z" fill="#F8F4EB"></path> <path d="M219.397 64.6685C219.079 64.6863 218.76 64.6863 218.443 64.6685C218.818 64.7131 219.199 64.7496 219.574 64.7739C219.627 64.7334 219.797 64.6968 219.397 64.6685Z" fill="#F8F4EB"></path> <path d="M220.79 64.7905H220.725C220.764 64.8028 220.79 64.807 220.79 64.7905Z" fill="#F8F4EB"></path> <path d="M214.986 64.4697L215.038 64.4903L215.058 64.4738L214.986 64.4697Z" fill="#F8F4EB"></path> <path d="M219.635 64.7781C219.839 64.8037 220.049 64.8037 220.253 64.7781C220.036 64.7781 219.812 64.7781 219.595 64.7456C219.549 64.7699 219.543 64.7781 219.635 64.7781Z" fill="#F8F4EB"></path> <path d="M217.307 64.4902L217.786 64.5673C217.638 64.5192 217.474 64.4929 217.307 64.4902Z" fill="#F8F4EB"></path> <path d="M220.631 64.7582H220.677C220.592 64.7336 220.592 64.7418 220.631 64.7582Z" fill="#F8F4EB"></path> <path d="M220.633 64.7578C220.505 64.7635 220.378 64.7744 220.252 64.7903C220.423 64.7903 220.587 64.7903 220.725 64.7903L220.633 64.7578Z" fill="#F8F4EB"></path> <path d="M213.856 65.0011C214.32 64.8881 214.837 64.8881 215.302 65.0011C215.959 64.9687 215.571 64.6726 215.039 64.4941C215.039 64.5306 215.006 64.5631 214.349 64.5834C214.572 64.6402 215.782 64.7578 215.223 64.8064C214.839 64.8283 214.452 64.7849 214.105 64.6807C214.447 64.8024 212.988 64.7821 213.159 64.9443L213.921 64.9241C213.928 64.9443 213.652 64.9687 213.856 65.0011Z" fill="#F8F4EB"></path> <path d="M216.273 64.5552H216.543C216.232 64.5216 215.928 64.4686 215.636 64.397C215.182 64.397 215.083 64.4456 215.051 64.47L216.365 64.543L216.273 64.5552Z" fill="#F8F4EB"></path> <path d="M217.748 64.6158C217.524 64.6929 216.88 64.705 217.255 64.8227C218.044 64.8551 217.82 64.778 218.293 64.7699C217.025 64.705 218.662 64.7415 217.754 64.628C218.011 64.628 218.234 64.628 218.412 64.6523L217.754 64.5671C217.807 64.5671 217.827 64.5915 217.754 64.5671C217.737 64.5797 217.714 64.5894 217.689 64.5955C217.327 64.555 217.636 64.5671 217.754 64.5671C217.327 64.5671 216.9 64.5671 216.473 64.5671C216.814 64.5874 217.15 64.5955 217.748 64.6158Z" fill="#F8F4EB"></path> <path d="M224.019 65.5086C223.986 65.5086 223.986 65.5086 223.986 65.4839C223.986 65.4593 223.881 65.5086 224.019 65.5086Z" fill="#F8F4EB"></path> <path d="M223.512 65.4189C223.668 65.3977 223.829 65.3977 223.985 65.4189C224.242 65.4635 223.985 65.4595 223.985 65.4919C224.169 65.4919 224.643 65.4919 224.071 65.3865H223.979C223.612 65.3456 223.259 65.2675 222.934 65.1553C223.095 65.267 223.292 65.3568 223.512 65.4189Z" fill="#F8F4EB"></path> <path d="M220.595 65.0421L219.53 65.0137L220.056 65.1272V65.0786C220.634 65.1394 220.516 65.0705 220.595 65.0421Z" fill="#F8F4EB"></path> <path d="M214.874 64.4213L215.025 64.332L214.394 64.4375L214.874 64.4213Z" fill="#F8F4EB"></path> <path d="M213.494 64.3687L213.559 64.2876L213.185 64.32L213.494 64.3687Z" fill="#F8F4EB"></path> <path d="M135.855 65.2529L135.546 65.2854C135.65 65.2784 135.753 65.2675 135.855 65.2529Z" fill="#F8F4EB"></path> <path d="M138.104 65.216L138.157 65.1714C138.058 65.1957 138.013 65.216 138.104 65.216Z" fill="#F8F4EB"></path> <path d="M179.666 63.6182C179.213 63.5411 178.7 63.4195 178.759 63.5127L178.897 63.606C179.153 63.5908 179.412 63.5949 179.666 63.6182Z" fill="#F8F4EB"></path> <path d="M156.528 64.3805L156.659 64.4048L156.961 64.3115L156.528 64.3805Z" fill="#F8F4EB"></path> <path d="M156.227 64.766L155.622 64.7173C155.76 64.7335 155.95 64.7497 156.227 64.766Z" fill="#F8F4EB"></path> <path d="M123.557 65.5811L123.202 65.6784C123.767 65.6703 123.518 65.6257 123.557 65.5811Z" fill="#F8F4EB"></path> <path d="M199.388 63.8858C199.066 63.8473 198.741 63.8203 198.415 63.8047C198.901 63.8615 199.263 63.9507 199.388 63.8858Z" fill="#F8F4EB"></path> <path d="M136.69 64.2632C136.5 64.2835 136.421 64.3037 136.427 64.324C136.618 64.2916 136.73 64.2916 136.69 64.2632Z" fill="#F8F4EB"></path> <path d="M197.285 63.7644L197.496 63.7928C197.802 63.7807 198.109 63.7807 198.416 63.7928C198.047 63.7328 197.661 63.7231 197.285 63.7644Z" fill="#F8F4EB"></path> <path d="M66.0073 64.0806H66.5398C66.3628 64.0688 66.1843 64.0688 66.0073 64.0806Z" fill="#F8F4EB"></path> <path d="M209.339 64.4985C209.274 64.4985 209.228 64.4985 209.221 64.5391C209.235 64.5273 209.253 64.5176 209.273 64.5106C209.293 64.5036 209.316 64.4995 209.339 64.4985Z" fill="#F8F4EB"></path> <path d="M208.391 64.1335C208.271 64.1128 208.148 64.0979 208.023 64.0889L208.391 64.1335Z" fill="#F8F4EB"></path> <path d="M208.341 64.0848L208.597 64.1051C208.637 64.0929 208.604 64.0807 208.341 64.0848Z" fill="#F8F4EB"></path> <path d="M207.55 64.0562C207.709 64.0603 207.867 64.0711 208.024 64.0886C207.964 64.0886 207.945 64.0886 207.958 64.0683L207.55 64.0562Z" fill="#F8F4EB"></path> <path d="M102.83 65.4839H102.764C102.475 65.5082 102.6 65.5082 102.83 65.4839Z" fill="#F8F4EB"></path> <path d="M171.03 64.6686C171.355 64.5769 171.717 64.5472 172.069 64.5835L171.714 64.3198L171.03 64.6686Z" fill="#F8F4EB"></path> <path d="M130.465 65.3866L131.201 65.4556C130.32 65.6097 129.676 65.5732 130.373 65.6786C130.465 65.3866 133.232 65.5894 133.318 65.3014L133.811 65.3542C133.666 65.3542 133.646 65.3542 133.508 65.3542C134.461 65.4718 134.166 65.1311 135.415 65.1473C135.842 65.1473 136.138 65.2 135.855 65.2365L136.795 65.1473C137.065 65.1473 137.005 65.2 136.729 65.2L138.169 65.1473C138.373 65.0986 138.826 65.0216 139.063 64.9851C139.431 65.0216 138.879 65.0216 138.977 65.054L139.766 64.9689C140.095 65.0378 139.438 65.123 138.892 65.123C139.648 65.3947 139.549 65.0378 141.16 65.1716L140.397 65.2487C140.89 65.4028 141.475 65.3298 142.33 65.415C142.126 65.3663 140.614 65.1919 141.475 65.1068C141.821 65.1289 142.171 65.1124 142.507 65.0581C142.507 65.1595 142.967 65.127 143.539 65.1108V65.2447C143.862 65.2174 144.174 65.1541 144.46 65.0581C144.639 65.0414 144.822 65.0495 144.996 65.0818C145.17 65.114 145.33 65.1697 145.465 65.2447C146.563 65.2447 144.696 65.0905 145.998 65.0419C146.88 65.0576 147.762 65.0114 148.627 64.904C149.284 64.9364 148.522 64.9891 148.752 65.0216L149.317 64.904C149.455 64.904 149.409 64.9364 149.39 64.9567C149.863 64.904 149.39 64.8188 150.172 64.7661C150.369 64.6119 151.723 64.9567 152.65 64.7661C152.88 64.8026 152.538 64.8512 152.617 64.904C153.337 64.846 154.048 64.7566 154.747 64.6363L155.641 64.7133C154.984 64.62 155.818 64.4862 156.548 64.3767L155.956 64.2915L157.127 64.2023C157.265 64.2226 157.127 64.2712 156.962 64.328L157.173 64.2915C157.593 64.3361 157.383 64.4173 157.087 64.4984L156.66 64.4213C156.371 64.5105 156.108 64.6038 156.173 64.6849C156.296 64.6585 156.425 64.6435 156.555 64.6403C156.476 64.6647 156.43 64.6849 156.469 64.6971C156.509 64.7093 156.627 64.6971 156.818 64.6403L157.094 64.7863L157.153 64.7255L158.691 64.7945C159.918 64.5485 161.182 64.38 162.464 64.2915C162.037 64.4091 162.379 64.474 162.359 64.6038C161.879 64.474 161.044 64.6849 160.111 64.6728C160.584 64.6728 160.479 64.7458 160.361 64.7661L161.965 64.616C161.932 64.7214 162.313 64.689 162.734 64.7296C162.405 64.5227 163.93 64.5754 164.581 64.5065C164.62 64.5754 164.469 64.6484 163.667 64.6403C164.554 64.7904 164.798 64.3808 165.639 64.5065C165.442 64.5065 165.337 64.5065 165.258 64.5389C165.711 64.47 166.829 64.5105 166.573 64.5754H166.382C167.697 64.5754 170.326 64.5389 170.51 64.3564C170.46 64.4515 170.377 64.5387 170.267 64.6119L172.607 63.9711C172.41 64.1252 173.192 64.4862 172.12 64.5876C172.557 64.6215 172.999 64.6215 173.435 64.5876C173.225 64.5633 172.909 64.3686 173.199 64.3483C173.693 64.4531 174.201 64.5332 174.717 64.5876C174.401 64.5552 174.75 64.3118 175.249 64.3199C175.171 64.3564 175.295 64.5592 175.111 64.5835L176.347 64.3442C176.038 64.3889 176.295 64.547 176.571 64.6119C176.446 64.5673 177.649 64.6119 177.977 64.5917L177.452 64.5389C178.852 64.5714 178.832 64.2023 180.225 64.2145C180.055 64.2631 179.805 64.5187 180.515 64.547C181.317 64.1972 182.231 63.9579 183.197 63.8454L183.427 63.9143L184.373 63.8332C183.355 64.1191 182.305 64.3604 181.231 64.5552C181.757 64.6079 181.376 64.6363 182.165 64.6322C182.441 64.6971 181.731 64.7296 181.507 64.7336L183.335 64.7742C183.256 64.6322 184.735 64.6282 184.649 64.5146L182.677 64.6606C182.598 64.5227 183.828 64.255 185.123 64.2915C185.451 64.3483 184.873 64.5389 184.899 64.5876C185.343 64.5332 185.796 64.5182 186.247 64.543L185.701 64.616C186.418 64.6768 186.878 64.4416 187.739 64.5876C188.041 64.5876 188.626 64.7782 188.679 64.6971C188.199 64.5268 188.114 64.0238 188.442 63.9062C189.084 63.9726 189.721 64.0592 190.349 64.1658C190.835 64.2996 189.599 64.4578 190.013 64.5714C190.013 64.5308 190.309 64.4862 190.421 64.474C190.736 64.5105 190.289 64.5917 190.973 64.5795C191.091 64.4375 192.36 64.6119 191.295 64.4619C191.952 64.4294 192.005 64.5024 192.787 64.5024C192.544 64.4091 193.504 64.1942 194.174 64.1617C194.135 64.1982 194.286 64.2469 194.358 64.2712C195.726 64.2712 196.455 64.3929 197.73 64.4254C197.842 64.4659 198.454 64.5227 198.191 64.5795C198.434 64.5379 198.687 64.5188 198.94 64.5227C199.689 64.6687 198.059 64.5227 198.631 64.6809C199.148 64.5971 199.681 64.5562 200.215 64.5592C200.057 64.4254 198.901 64.4984 198.361 64.5349C198.361 64.3564 199.361 64.1942 200.702 64.1496C201.76 64.1496 201.149 64.2794 201.359 64.2591C203.331 64.3442 203.075 63.9914 204.725 64.1658C205.382 64.2996 204.725 64.3929 204.869 64.4821C204.23 64.4649 203.594 64.4242 202.963 64.3605L203.679 64.4335C203.294 64.472 202.901 64.472 202.516 64.4335C203.055 64.5592 205.875 64.5308 207.4 64.7012C207.669 64.6768 208.149 64.6566 207.926 64.6038H207.439C207.006 64.4903 208.366 64.5187 207.761 64.4497C208.527 64.3839 209.303 64.3839 210.069 64.4497L210.226 64.5876C209.958 64.5157 209.663 64.4892 209.372 64.5105C209.76 64.47 210.759 64.7498 211.199 64.5998L210.542 64.4821C211.302 64.4047 212.075 64.3856 212.843 64.4254C212.488 64.2794 212.652 64.4254 212.093 64.255C212.567 64.4659 210.01 64.1496 210.779 64.3808C210.207 64.182 209.76 64.2591 209.004 64.0766C209.004 64.1212 209.267 64.1698 208.59 64.1171C208.539 64.1316 208.486 64.1425 208.432 64.1496C208.399 64.1496 208.399 64.1496 208.432 64.1496C208.553 64.1624 208.67 64.19 208.774 64.2307C208.174 64.2756 207.57 64.296 206.966 64.2915C206.565 64.251 207.144 64.251 206.927 64.1942L206.368 64.2469C206.322 64.1536 205.31 64.0603 206.269 64.0319L205.408 64.0036C204.873 63.9339 204.325 63.9066 203.778 63.9224C203.377 63.894 202.746 63.9995 203.121 63.9224L201.767 63.9468V63.9224C200.452 63.8738 199.019 64.0036 197.507 63.7886C196.953 63.811 196.396 63.8042 195.844 63.7683L195.699 63.6831C195.044 63.6441 194.385 63.636 193.727 63.6588C193.109 63.4317 190.934 63.5777 189.921 63.529L189.875 63.6345C189.178 63.6345 188.515 63.6345 187.647 63.675L187.699 63.7724C186.937 63.8454 185.754 63.6831 184.59 63.6791C184.785 63.6503 184.987 63.6503 185.182 63.6791C183.775 63.4479 182.204 63.8332 180.929 63.6791C180.675 63.7102 180.414 63.7102 180.16 63.6791H180.107L179.667 63.6264C179.787 63.6503 179.91 63.6679 180.035 63.6791C179.792 63.6791 179.417 63.6791 179.055 63.7156L178.898 63.6142H178.812C178.457 63.5777 178.523 63.6629 178.714 63.7399C178.551 63.753 178.391 63.7734 178.234 63.8008C177.945 63.6345 177.274 63.8575 176.88 63.6831C176.63 63.7683 175.046 63.748 174.848 63.9265C174.848 63.9022 174.73 63.894 174.927 63.89C174.537 63.8533 174.141 63.8533 173.751 63.89L173.573 63.7602L172.692 63.9427C172.147 63.8859 171.95 63.8332 172.462 63.7278C171.148 63.894 171.411 63.7967 170.313 63.9589L170.365 63.8738C169.971 63.8738 169.346 63.9995 169.11 63.9346C168.222 63.7845 164.758 63.9346 162.49 63.8292C162.937 64.0725 161.439 63.7318 161.36 63.9265C161.222 63.8738 160.906 63.8454 161.274 63.7886C160.117 63.8859 159.539 63.7237 158.75 63.8859C158.612 63.8292 158.993 63.7967 158.875 63.7643C158.718 63.7951 158.552 63.8034 158.389 63.7886C158.27 63.7561 158.553 63.7359 158.737 63.7075C157.56 63.7359 157.422 63.9184 157.37 64.0887C156.933 64.0132 156.467 64.0362 156.055 64.1536C155.845 64.1009 155.496 64.0482 156.226 64.0157C155.812 64.0157 153.708 63.9792 153.676 64.1131C153.458 64.0904 153.236 64.0904 153.018 64.1131C152.091 64.1131 152.012 64.1131 151.105 64.1374L151.362 64.1577C151.007 64.324 150.606 64.2063 149.876 64.2429V64.2226C148.193 64.1374 149.153 64.2956 147.497 64.1942L147.589 64.2915C147.444 64.5146 146.123 64.1942 145.163 64.2915L145.511 64.3442C144.992 64.4254 144.032 64.0725 143.539 64.0563C143.428 64.0563 143.723 64.0238 143.881 64.0076C142.494 63.9062 143.71 64.1415 142.685 64.1942C142.494 64.1252 142.921 64.0076 142.225 64.0076C141.883 63.9549 140.253 64.2794 139.286 64.1617C139.497 64.2104 139.707 64.2631 139.234 64.3159C138.504 64.3483 137.262 64.1455 136.604 64.3159C136.512 64.3159 136.473 64.2875 136.473 64.2753C135.751 64.3125 135.035 64.383 134.33 64.4862C133.798 64.1455 130.866 64.7255 130.866 64.401L129.15 64.4538L129.19 64.4213C128.558 64.3972 127.924 64.4538 127.329 64.5876C127.073 64.5673 127.257 64.5349 127.277 64.5187C126.235 64.4564 125.184 64.5114 124.174 64.6809L123.964 64.6282C123.602 64.6931 121.637 64.5024 120.072 64.6282C120.072 64.6282 120.118 64.5957 120.243 64.5795C118.482 64.7377 115.997 64.3524 115.366 64.7417L114.202 64.8472C115.714 64.8472 113.979 65.0135 114.603 65.0703C114.012 65.0986 113.065 64.9729 113.795 64.9445H113.906C114.169 64.7417 112.026 64.8918 112.066 64.7579C109.095 64.7985 106.196 64.7296 103.409 64.7133L103.737 64.8675H102.765C102.508 64.831 102.423 64.7458 103.113 64.7539C102.71 64.709 102.294 64.7475 101.93 64.8634C100.576 64.8026 102.462 64.6809 102.048 64.6768H101.483H101.608C101.186 64.7682 100.74 64.8095 100.293 64.7985C99.7605 64.7701 100.023 64.7052 99.813 64.6971C99.813 64.6971 99.7407 64.6971 99.4975 64.6971H98.2749L98.7613 64.8188C98.2157 64.8796 97.611 64.8188 98.1763 64.9486C97.3118 64.8391 96.4282 64.7982 95.5469 64.8269C94.4426 64.8269 93.3843 64.8269 93.1279 64.7863C92.3202 64.8566 91.5028 64.8742 90.6892 64.8391C90.9192 64.8675 91.0573 65.0054 90.2553 64.981C90.5577 64.6971 88.796 64.8391 88.1518 64.6282C88.7237 64.7701 85.8774 64.6282 86.778 64.8391C86.1206 64.8107 86.7385 64.7336 86.2324 64.6606C84.6416 64.7661 82.7353 64.5268 80.7699 64.5105C80.737 64.547 81.0657 64.616 80.6384 64.6606L79.6196 64.4456C79.2251 64.4456 79.2449 64.6525 78.5481 64.5024C78.6401 64.5389 78.7913 64.5876 78.5481 64.5917C76.6352 64.4456 74.6632 64.4497 72.6912 64.3929C70.7069 64.3626 68.7291 64.2392 66.7751 64.0238C67.2944 64.1212 66.946 64.109 66.5385 64.0968C66.8014 64.1252 66.5385 64.1861 66.5713 64.2388L64.9543 64.0279C64.6388 64.1536 63.2058 63.9589 63.0151 64.0847H63.5344C62.8245 64.2145 64.4481 64.4903 64.3232 64.6768C65.1186 64.5308 66.2953 65.0337 67.6099 64.835C67.886 64.8877 67.3602 64.8877 67.5048 64.9405C67.9776 64.8688 68.4715 64.8688 68.9443 64.9405H68.8589C70.8835 65.0054 71.738 65.1514 73.9993 65.2812L73.8415 65.1757C74.1211 65.1913 74.3968 65.2267 74.6632 65.2812C75.2351 65.1433 73.2894 65.2365 73.8152 65.0824C74.4726 65.3014 77.2597 65.1757 77.6804 65.415C78.4298 65.4393 77.4635 65.2933 78.2194 65.3177L78.41 65.3826L78.6072 65.3095C79.1003 65.3339 79.3435 65.4191 79.3566 65.4718C79.2383 65.4718 79.0148 65.4718 78.8899 65.4718C79.5602 65.5149 80.2341 65.5325 80.9079 65.5245L80.1914 65.4677C82.2423 65.4677 84.7402 65.6178 86.7254 65.4961L86.5808 65.4474C88.0927 65.3744 87.7903 65.5123 89.4534 65.488H89.3942C89.7993 65.4414 90.2118 65.4237 90.6234 65.4353C90.2027 65.488 91.4122 65.5529 90.8601 65.6056C92.5034 65.5326 91.6686 65.5407 92.7598 65.3785L93.0096 65.4596C93.4015 65.3679 93.8202 65.3279 94.2388 65.342C93.5815 65.4028 94.7647 65.4677 94.0022 65.5488C95.7441 65.7476 96.5855 65.3866 97.3875 65.6381C98.1828 65.4231 95.8822 65.5205 96.3291 65.4758C95.9545 65.4028 96.9865 65.3095 97.5321 65.3339C98.0777 65.3582 98.4786 65.6097 99.8788 65.6016C99.7342 65.6016 99.7276 65.6016 99.5896 65.6016C100.146 65.5837 100.703 65.5837 101.259 65.6016C101.614 65.4677 102.087 65.6016 102.193 65.4393L100.878 65.4799C101.736 65.3455 102.624 65.2948 103.507 65.3298C103.295 65.3803 103.075 65.4157 102.85 65.4353C103.198 65.484 103.507 65.4028 103.889 65.4353C103.783 65.6016 102.331 65.4758 101.548 65.6056C101.923 65.6746 103.021 65.4799 102.633 65.6624C103.192 65.4312 104.013 65.6908 104.953 65.5123L104.901 65.6746C105.143 65.6431 105.39 65.6228 105.637 65.6137L105.138 65.7476C105.907 65.634 106.623 65.8449 107.353 65.7719C105.815 65.7719 107.004 65.6543 106.354 65.5853C108.253 65.4353 107.451 65.8368 109.575 65.7679C109.292 65.7679 108.497 65.7192 108.917 65.6665C109.318 65.6755 109.717 65.7094 110.107 65.7679C111.514 65.7314 109.89 65.6665 110.488 65.5975C110.968 65.7151 111.146 65.5407 111.803 65.4961V65.5975C113.407 65.6462 112.224 65.3785 113.67 65.4434L113.058 65.5894L113.814 65.5448L113.663 65.6624C114.28 65.5877 114.912 65.5713 115.537 65.6137C115.353 65.5407 115.635 65.4272 116.345 65.415C116.832 65.4718 116.082 65.5164 117.088 65.488C116.953 65.5404 116.801 65.5732 116.643 65.5837C116.484 65.5943 116.324 65.5823 116.174 65.5488C116.128 65.5853 115.951 65.6178 115.905 65.6502C116.462 65.6851 117.024 65.6851 117.581 65.6502C117.45 65.6575 117.318 65.6575 117.187 65.6502L118.646 65.488C118.876 65.5245 118.692 65.557 118.514 65.5894C118.81 65.5894 119.014 65.5245 119.448 65.5083C119.336 65.5935 119.369 65.6786 118.751 65.7273L120.145 65.6097C120.237 65.6462 120.861 65.6989 120.677 65.7314C121.453 65.7679 122.564 65.5407 123.589 65.5853C123.707 65.5482 123.833 65.5222 123.964 65.5083C124.947 65.5592 125.937 65.5443 126.915 65.4637L127.573 65.6016C128.46 65.5529 126.685 65.4312 128.171 65.3501C129.216 65.2852 128.572 65.4677 128.94 65.5042C129.709 65.345 130.526 65.2923 131.333 65.3501C131.01 65.3866 130.761 65.3704 130.465 65.3866ZM141.456 65.1027C141.245 65.127 140.798 65.2041 140.66 65.1473C140.897 65.0256 141.087 65.0784 141.456 65.1027ZM158.145 64.5511C157.929 64.5831 157.704 64.5831 157.488 64.5511C157.706 64.5341 157.927 64.5341 158.145 64.5511ZM204.751 64.036C204.258 63.9873 204.422 64.0076 204.751 64.036V64.036ZM205.737 64.109C205.835 64.109 205.829 64.0847 205.789 64.0684C205.609 64.0908 205.424 64.0908 205.244 64.0684C205.396 64.1153 205.57 64.1296 205.737 64.109ZM99.7079 64.8026L99.9051 64.8269C99.4712 64.8593 99.5896 64.831 99.7079 64.8026Z" fill="#F8F4EB"></path> <path d="M156.267 64.7212C156.246 64.7172 156.227 64.7104 156.211 64.7013C156.195 64.6922 156.183 64.6809 156.175 64.6685C156.09 64.6968 156.09 64.6968 156.267 64.7212Z" fill="#F8F4EB"></path> <path d="M190.4 64.632C190.265 64.6221 190.133 64.603 190.005 64.5752C189.999 64.5995 190.091 64.6198 190.4 64.632Z" fill="#F8F4EB"></path> <path d="M210.991 64.1656H210.333C210.525 64.1688 210.716 64.1893 210.899 64.2264C210.905 64.1981 210.787 64.1575 210.991 64.1656Z" fill="#F8F4EB"></path> <path d="M216.387 65.0498C216.479 65.0498 216.584 65.0498 216.677 65.0498V65.0012C216.262 64.985 215.993 65.0093 216.387 65.0498Z" fill="#F8F4EB"></path> <path d="M211.528 64.5309C211.567 64.6201 211.968 64.6079 212.415 64.612H212.336C212.481 64.4944 212.008 64.5106 211.528 64.5309Z" fill="#F8F4EB"></path> <path d="M212.513 64.6161C212.651 64.6099 212.789 64.6099 212.927 64.6161C212.986 64.5877 212.763 64.6121 212.513 64.6161Z" fill="#F8F4EB"></path> <path d="M206.994 64.093C207.204 64.1254 207.138 63.9916 207.257 64.0321C207.5 63.9348 205.843 64.097 206.994 64.093Z" fill="#F8F4EB"></path> <path d="M211.857 64.8308L211.712 64.7173L211.456 64.7903L211.857 64.8308Z" fill="#F8F4EB"></path> <path d="M208.373 64.5875L209.077 64.6524C209.077 64.6321 209.162 64.6281 209.274 64.624C208.977 64.5895 208.675 64.5772 208.373 64.5875Z" fill="#F8F4EB"></path> <path d="M209.272 64.6242C209.46 64.6359 209.649 64.6359 209.837 64.6242C209.719 64.6283 209.449 64.6202 209.272 64.6242Z" fill="#F8F4EB"></path> <path d="M210.892 64.8147L210.682 64.7823L210.189 64.7539L210.892 64.8147Z" fill="#F8F4EB"></path> <path d="M200.773 64.3237H200.004C199.919 64.3562 200.129 64.3846 200.418 64.3805C200.602 64.3683 200.872 64.3602 200.773 64.3237Z" fill="#F8F4EB"></path> <path d="M203.089 64.6971C202.969 64.6818 202.855 64.6515 202.754 64.6079L202.721 64.7377L203.089 64.6971Z" fill="#F8F4EB"></path> <path d="M200.835 64.6445C200.756 64.681 199.711 64.7175 200.69 64.7378C200.769 64.6973 201.531 64.6973 200.835 64.6445Z" fill="#F8F4EB"></path> <path d="M189.218 64.255L189.415 64.2591L189.395 64.04L189.218 64.255Z" fill="#F8F4EB"></path> <path d="M178.964 64.7174C179.878 64.7701 179.181 64.5876 180.003 64.6485C180.22 64.5998 179.346 64.5957 179.549 64.5552C178.997 64.6079 178.708 64.5755 178.964 64.7174Z" fill="#F8F4EB"></path> <path d="M179.549 64.5551L179.831 64.5186C179.735 64.5253 179.641 64.5375 179.549 64.5551Z" fill="#F8F4EB"></path> <path d="M63.8824 63.8658L63.304 63.7969L63.6721 63.8861L63.8824 63.8658Z" fill="#F8F4EB"></path> <path d="M62.7328 63.975L62.6144 63.833L62.2463 63.9385C62.4108 63.9317 62.5758 63.9441 62.7328 63.975Z" fill="#F8F4EB"></path> <path d="M143.105 65.3459L143.145 65.3135C142.982 65.2793 142.809 65.2682 142.639 65.281L143.105 65.3459Z" fill="#F8F4EB"></path> <path d="M135.119 65.4028H135.257L134.994 65.2852L135.119 65.4028Z" fill="#F8F4EB"></path> <path d="M128.429 65.6948C128.705 65.6948 129.02 65.6623 129.296 65.6623C128.705 65.6948 128.35 65.5406 128.429 65.6948Z" fill="#F8F4EB"></path> </svg> 