<svg width="74" height="35" viewBox="0 0 74 35" fill="none" xmlns="http://www.w3.org/2000/svg">
<path fill-rule="evenodd" clip-rule="evenodd" d="M18.848 17.2565C17.134 17.4894 15.6902 17.5919 14.2835 17.8807C12.1783 18.3092 10.073 18.8122 7.9957 19.3898C5.65865 19.9267 3.4857 21.0196 1.66124 22.5756C1.47829 22.6922 1.26896 22.7611 1.05248 22.7757C0.835993 22.7903 0.619302 22.7504 0.422302 22.6594C0.251462 22.4701 0.127143 22.2435 0.0592226 21.9977C-0.00869735 21.7519 -0.0183475 21.4937 0.0310525 21.2435C0.446653 20.4201 0.987123 19.666 1.63329 19.0078C1.804 18.9017 1.99585 18.8343 2.19538 18.8101C2.39491 18.786 2.59731 18.8058 2.78839 18.8681C3.4032 19.0265 3.71992 19.0637 3.87826 18.2812C3.93874 18.1273 4.03281 17.9889 4.15375 17.876C4.27462 17.7632 4.41925 17.6788 4.5769 17.6291C6.5425 17.1075 8.508 16.5859 10.4922 16.148C11.8894 15.8499 13.2868 15.6916 14.7307 15.468C15.5784 15.3283 16.426 15.1885 17.283 15.0674C18.1401 14.9463 19.2392 14.8346 20.2174 14.6669C20.5331 14.6025 20.8202 14.4394 21.0371 14.2011C22.9002 11.9841 24.6142 9.66463 26.5518 7.54063C28.3031 5.61239 30.2779 3.89836 32.141 2.0819C32.2342 1.99804 32.3366 1.84899 32.4391 1.84899C33.0254 1.74601 33.6275 1.77791 34.1997 1.94214C34.6096 2.15646 34.0227 3.60026 33.4172 4.12197C30.5691 6.52209 27.9666 9.19943 25.6482 12.1145C25.1638 12.7293 24.7819 13.4372 24.2137 14.3223C24.8585 14.2174 25.5084 14.1459 26.1605 14.1079C27.5579 14.1079 28.9552 14.0148 30.3524 14.1079C30.8507 14.1375 31.3457 14.0107 31.7682 13.7451C32.1908 13.4795 32.5198 13.0886 32.7093 12.6268C32.9511 12.1801 33.1597 11.7162 33.3333 11.2388C33.5197 10.829 33.5569 10.3632 34.2649 10.3073C34.5816 10.3073 34.8797 9.65533 35.1126 9.25473C36.3354 7.32213 37.0618 5.11739 37.2272 2.83643C37.2644 1.86765 36.8266 1.57885 35.9509 1.57885C35.5039 1.57885 34.9356 1.77451 34.8611 0.982728C34.7866 0.190868 35.2989 0.284018 35.7926 0.144338C36.2484 -0.0167916 36.7409 -0.0436615 37.2115 0.0669785C37.6822 0.177629 38.1112 0.421139 38.4475 0.768409C38.7601 1.09554 38.9617 1.5128 39.0235 1.96095C39.0854 2.40911 39.0045 2.86539 38.7922 3.26492C37.8606 5.6031 36.9291 7.92263 35.9976 10.3166C37.1713 11.3413 37.1713 11.3413 35.6715 13.8192L36.1373 13.8751C39.3977 14.0707 42.658 14.2943 45.9277 14.4433C47.0269 14.4899 48.1354 14.2849 49.244 14.3223C51.107 14.3781 52.9701 14.5458 54.7773 14.6482C57.2551 14.7973 59.7517 14.7973 62.2295 15.0768C64.8751 15.3935 67.5113 15.9058 70.1196 16.4461C70.948 16.6715 71.7279 17.0473 72.4205 17.5546C72.5999 17.6615 72.7535 17.8064 72.8707 17.9792C72.9878 18.152 73.0656 18.3484 73.0985 18.5545C73.1313 18.7607 73.1185 18.9716 73.0609 19.1723C73.0033 19.3729 72.9024 19.5585 72.7652 19.7158C72.5827 20.1398 72.2798 20.5009 71.8939 20.7543C71.508 21.0076 71.0563 21.1421 70.5947 21.141C70.2594 21.141 69.775 20.8709 69.6632 20.6194C69.5513 20.3678 69.8774 19.958 70.0451 19.6413C70.1196 19.5202 70.3153 19.4829 70.4364 19.3805C70.5575 19.278 70.781 19.0451 70.9487 18.8867C70.753 18.6911 70.5854 18.393 70.3525 18.3371C69.0949 18.0111 67.8373 17.685 66.5519 17.4615C64.4559 17.0982 62.3413 16.7629 60.2268 16.53C59.0157 16.3902 57.7861 16.4368 56.5658 16.353C53.8271 16.1667 51.0884 15.9524 48.3497 15.7475C48.0609 15.7475 47.7628 15.7475 47.474 15.7475C44.0367 15.7475 40.5993 15.7475 37.1806 15.6823C36.1034 15.5824 35.0227 15.8331 34.0996 16.3971C33.1763 16.9611 32.46 17.8081 32.0572 18.8122C30.5481 21.7745 28.9924 24.7088 27.5392 27.699C27.1427 28.63 26.849 29.6014 26.6636 30.5961C26.4773 31.4065 27.0176 31.686 27.7162 31.7419C27.846 31.7605 27.9777 31.7605 28.1075 31.7419C28.8248 31.6301 29.421 31.9189 29.4862 32.6082C29.4975 32.9187 29.3991 33.2233 29.2083 33.4686C29.0176 33.7139 28.7466 33.8842 28.4428 33.9496C26.8313 34.3874 24.4186 32.571 24.5676 30.9501C24.6182 30.0896 24.7747 29.2386 25.0334 28.4163C25.7041 26.5533 26.5052 24.6902 27.2411 22.8271C27.3299 22.522 27.3953 22.2106 27.4368 21.8956C25.9183 23.4139 24.549 24.6902 23.2914 26.0782C22.0338 27.4661 20.8881 28.9473 19.1275 29.6179L18.8387 29.3944C18.9691 29.0404 19.0064 28.584 19.2579 28.3325C20.3292 27.2426 21.475 26.2179 22.5741 25.1466C24.2509 23.4978 25.965 21.8769 27.5579 20.1443C28.536 19.0637 29.3184 17.8061 30.3524 16.3622L21.7358 17.2286C19.379 21.6441 15.8391 25.3702 14.4512 30.6148L16.631 29.8229C16.8266 30.7544 16.808 31.5369 16.0348 32.012C15.1033 32.571 14.0599 32.9995 13.0725 32.3381C12.6138 31.9419 12.3239 31.3853 12.2621 30.7824C12.0939 28.4657 12.7835 26.1681 14.1997 24.3269C15.5038 22.3986 16.7707 20.4424 18.0469 18.5048L18.848 17.2565Z" fill="#FCFBFB"/>
<path fill-rule="evenodd" clip-rule="evenodd" d="M32.236 32.3196C32.6255 32.2682 33.0201 32.2682 33.4097 32.3196C35.5838 32.9165 37.9006 32.7046 39.9305 31.7234C40.9286 31.4116 41.9552 31.1994 42.9951 31.09C44.2605 30.7766 45.5416 30.5309 46.8331 30.354C48.5099 30.2143 50.2332 29.7485 51.8634 30.531C52.2847 30.7937 52.6725 31.1064 53.0184 31.4625L52.0124 32.4686C51.9502 32.5399 51.8641 32.5863 51.7702 32.599L50.2239 32.6642C50.3356 32.245 50.4381 31.8258 50.6058 31.1551C49.9641 31.1035 49.3192 31.1035 48.6775 31.1551C45.4917 31.5836 42.3804 32.5618 39.1106 32.5059C38.4709 32.5556 37.8426 32.7032 37.2476 32.9437C36.0725 33.4494 34.7651 33.5605 33.5215 33.2604C33.0557 33.1021 32.59 32.9064 32.1521 32.7294L32.236 32.3196Z" fill="#FCFBFB"/>
<path fill-rule="evenodd" clip-rule="evenodd" d="M67.9322 22.6876C67.6369 22.5986 67.3774 22.418 67.1916 22.1718C67.0057 21.9256 66.9029 21.6267 66.8982 21.3182C66.9087 20.8202 66.9967 20.3267 67.159 19.8557C67.2251 19.8267 67.2965 19.8117 67.3686 19.8117C67.4408 19.8117 67.5122 19.8267 67.5782 19.8557C68.2036 20.3801 68.7832 20.9566 69.3109 21.579C69.6742 22.0075 68.9197 22.7155 67.9322 22.6876Z" fill="#FCFBFB"/>
</svg>
