<svg width="80" height="80" viewBox="0 0 80 80" fill="none" xmlns="http://www.w3.org/2000/svg">
<circle cx="40" cy="40" r="40" fill="#393838"/>
<path fill-rule="evenodd" clip-rule="evenodd" d="M21.848 40.2565C20.134 40.4894 18.6902 40.5919 17.2835 40.8807C15.1783 41.3092 13.073 41.8122 10.9957 42.3898C8.65865 42.9267 6.4857 44.0196 4.66124 45.5756C4.47829 45.6922 4.26896 45.7611 4.05248 45.7757C3.83599 45.7903 3.6193 45.7504 3.4223 45.6594C3.25146 45.4701 3.12714 45.2435 3.05922 44.9977C2.9913 44.7519 2.98165 44.4937 3.03105 44.2435C3.44665 43.4201 3.98712 42.666 4.63329 42.0078C4.804 41.9017 4.99585 41.8343 5.19538 41.8101C5.39491 41.786 5.59731 41.8058 5.78839 41.8681C6.4032 42.0265 6.71992 42.0637 6.87826 41.2812C6.93874 41.1273 7.03281 40.9889 7.15375 40.876C7.27462 40.7632 7.41925 40.6788 7.5769 40.6291C9.5425 40.1075 11.508 39.5859 13.4922 39.148C14.8894 38.8499 16.2868 38.6916 17.7307 38.468C18.5784 38.3283 19.426 38.1885 20.283 38.0674C21.1401 37.9463 22.2392 37.8346 23.2174 37.6669C23.5331 37.6025 23.8202 37.4394 24.0371 37.2011C25.9002 34.9841 27.6142 32.6646 29.5518 30.5406C31.3031 28.6124 33.2779 26.8984 35.141 25.0819C35.2342 24.998 35.3366 24.849 35.4391 24.849C36.0254 24.746 36.6275 24.7779 37.1997 24.9421C37.6096 25.1565 37.0227 26.6003 36.4172 27.122C33.5691 29.5221 30.9666 32.1994 28.6482 35.1145C28.1638 35.7293 27.7819 36.4372 27.2137 37.3223C27.8585 37.2174 28.5084 37.1459 29.1605 37.1079C30.5579 37.1079 31.9552 37.0148 33.3524 37.1079C33.8507 37.1375 34.3457 37.0107 34.7682 36.7451C35.1908 36.4795 35.5198 36.0886 35.7093 35.6268C35.9511 35.1801 36.1597 34.7162 36.3333 34.2388C36.5197 33.829 36.5569 33.3632 37.2649 33.3073C37.5816 33.3073 37.8797 32.6553 38.1126 32.2547C39.3354 30.3221 40.0618 28.1174 40.2272 25.8364C40.2644 24.8676 39.8266 24.5788 38.9509 24.5788C38.5039 24.5788 37.9356 24.7745 37.8611 23.9827C37.7866 23.1909 38.2989 23.284 38.7926 23.1443C39.2484 22.9832 39.7409 22.9563 40.2115 23.067C40.6822 23.1776 41.1112 23.4211 41.4475 23.7684C41.7601 24.0955 41.9617 24.5128 42.0235 24.9609C42.0854 25.4091 42.0045 25.8654 41.7922 26.2649C40.8606 28.6031 39.9291 30.9226 38.9976 33.3166C40.1713 34.3413 40.1713 34.3413 38.6715 36.8192L39.1373 36.8751C42.3977 37.0707 45.658 37.2943 48.9277 37.4433C50.0269 37.4899 51.1354 37.2849 52.244 37.3223C54.107 37.3781 55.9701 37.5458 57.7773 37.6482C60.2551 37.7973 62.7517 37.7973 65.2295 38.0768C67.8751 38.3935 70.5113 38.9058 73.1196 39.4461C73.948 39.6715 74.7279 40.0473 75.4205 40.5546C75.5999 40.6615 75.7535 40.8064 75.8707 40.9792C75.9878 41.152 76.0656 41.3484 76.0985 41.5545C76.1313 41.7607 76.1185 41.9716 76.0609 42.1723C76.0033 42.3729 75.9024 42.5585 75.7652 42.7158C75.5827 43.1398 75.2798 43.5009 74.8939 43.7543C74.508 44.0076 74.0563 44.1421 73.5947 44.141C73.2594 44.141 72.775 43.8709 72.6632 43.6194C72.5513 43.3678 72.8774 42.958 73.0451 42.6413C73.1196 42.5202 73.3153 42.4829 73.4364 42.3805C73.5575 42.278 73.781 42.0451 73.9487 41.8867C73.753 41.6911 73.5854 41.393 73.3525 41.3371C72.0949 41.0111 70.8373 40.685 69.5519 40.4615C67.4559 40.0982 65.3413 39.7629 63.2268 39.53C62.0157 39.3902 60.7861 39.4368 59.5658 39.353C56.8271 39.1667 54.0884 38.9524 51.3497 38.7475C51.0609 38.7475 50.7628 38.7475 50.474 38.7475C47.0367 38.7475 43.5993 38.7475 40.1806 38.6823C39.1034 38.5824 38.0227 38.8331 37.0996 39.3971C36.1763 39.9611 35.46 40.8081 35.0572 41.8122C33.5481 44.7745 31.9924 47.7088 30.5392 50.699C30.1427 51.63 29.849 52.6014 29.6636 53.5961C29.4773 54.4065 30.0176 54.686 30.7162 54.7419C30.846 54.7605 30.9777 54.7605 31.1075 54.7419C31.8248 54.6301 32.421 54.9189 32.4862 55.6082C32.4975 55.9187 32.3991 56.2233 32.2083 56.4686C32.0176 56.7139 31.7466 56.8842 31.4428 56.9496C29.8313 57.3874 27.4186 55.571 27.5676 53.9501C27.6182 53.0896 27.7747 52.2386 28.0334 51.4163C28.7041 49.5533 29.5052 47.6902 30.2411 45.8271C30.3299 45.522 30.3953 45.2106 30.4368 44.8956C28.9183 46.4139 27.549 47.6902 26.2914 49.0782C25.0338 50.4661 23.8881 51.9473 22.1275 52.6179L21.8387 52.3944C21.9691 52.0404 22.0064 51.584 22.2579 51.3325C23.3292 50.2426 24.475 49.2179 25.5741 48.1466C27.2509 46.4978 28.965 44.8769 30.5579 43.1443C31.536 42.0637 32.3184 40.8061 33.3524 39.3622L24.7358 40.2286C22.379 44.6441 18.8391 48.3702 17.4512 53.6148L19.631 52.8229C19.8266 53.7544 19.808 54.5369 19.0348 55.012C18.1033 55.571 17.0599 55.9995 16.0725 55.3381C15.6138 54.9419 15.3239 54.3853 15.2621 53.7824C15.0939 51.4657 15.7835 49.1681 17.1997 47.3269C18.5038 45.3986 19.7707 43.4424 21.0469 41.5048L21.848 40.2565Z" fill="#C5A45A"/>
<path fill-rule="evenodd" clip-rule="evenodd" d="M35.236 55.3196C35.6255 55.2682 36.0201 55.2682 36.4097 55.3196C38.5838 55.9165 40.9006 55.7046 42.9305 54.7234C43.9286 54.4116 44.9552 54.1994 45.9951 54.09C47.2605 53.7766 48.5416 53.5309 49.8331 53.354C51.5099 53.2143 53.2332 52.7485 54.8634 53.531C55.2847 53.7937 55.6725 54.1064 56.0184 54.4625L55.0124 55.4686C54.9502 55.5399 54.8641 55.5863 54.7702 55.599L53.2239 55.6642C53.3356 55.245 53.4381 54.8258 53.6058 54.1551C52.9641 54.1035 52.3192 54.1035 51.6775 54.1551C48.4917 54.5836 45.3804 55.5618 42.1106 55.5059C41.4709 55.5556 40.8426 55.7032 40.2476 55.9437C39.0725 56.4494 37.7651 56.5605 36.5215 56.2604C36.0557 56.1021 35.59 55.9064 35.1521 55.7294L35.236 55.3196Z" fill="#C5A45A"/>
<path fill-rule="evenodd" clip-rule="evenodd" d="M70.9322 45.6876C70.6369 45.5986 70.3774 45.418 70.1916 45.1718C70.0057 44.9256 69.9029 44.6267 69.8982 44.3182C69.9087 43.8202 69.9967 43.3267 70.159 42.8557C70.2251 42.8267 70.2965 42.8117 70.3686 42.8117C70.4408 42.8117 70.5122 42.8267 70.5782 42.8557C71.2036 43.3801 71.7832 43.9566 72.3109 44.579C72.6742 45.0075 71.9197 45.7155 70.9322 45.6876Z" fill="#C5A45A"/>
</svg>
